<?xml version="1.0" encoding="utf-8"?>
<!-- Generator: Adobe Illustrator 16.0.0, SVG Export Plug-In . SVG Version: 6.00 Build 0)  -->
<!DOCTYPE svg PUBLIC "-//W3C//DTD SVG 1.1//EN" "http://www.w3.org/Graphics/SVG/1.1/DTD/svg11.dtd">
<svg version="1.1" xmlns="http://www.w3.org/2000/svg" xmlns:xlink="http://www.w3.org/1999/xlink" x="0px" y="0px"
	 width="326.76px" height="106px" viewBox="0 0 326.76 106" enable-background="new 0 0 326.76 106" xml:space="preserve">
<g id="Layer_2">
</g>
<g id="Layer_1">
	<g>
		<g>
			<path fill="#FFFFFF" d="M208.325,89.412v-7.706h-0.194c-4.488,6.243-11.609,9.072-19.121,9.072
				c-16.193,0-28.096-12.097-28.096-28.193c0-16.193,11.707-28.682,28.096-28.682c6.828,0,14.049,2.635,18.34,8.098h0.195V17.222
				h10.146v72.19H208.325z M189.595,43.171c-10.73,0-18.535,8.78-18.535,19.316c0,10.146,8.098,19.023,18.438,19.023
				c10.535,0,18.827-8.585,18.827-19.023C208.325,51.659,200.619,43.171,189.595,43.171z"/>
			<path fill="#FFFFFF" d="M282.956,66.779h-44.778c2.049,8.39,8.878,14.731,17.756,14.731c6.341,0,12.487-3.414,15.414-9.072
				h10.145c-4.097,11.022-14.146,18.34-25.949,18.34c-15.414,0-27.51-13.365-27.51-28.486c0-15.608,11.9-28.389,27.705-28.389
				c15.316,0,27.511,12.586,27.511,27.803C283.249,63.365,283.15,65.122,282.956,66.779z M255.641,43.171
				c-8.779,0-16.877,6.928-17.463,15.805h34.926C272.518,50.099,264.42,43.171,255.641,43.171z"/>
			<path fill="#FFFFFF" d="M293.396,89.412v-72.19h10.146v72.19H293.396z"/>
			<path fill="#FFFFFF" d="M316.613,89.412v-72.19h10.146v72.19H316.613z"/>
		</g>
		<circle fill-rule="evenodd" clip-rule="evenodd" fill="#FFE603" cx="53" cy="53" r="53"/>
		<g>
			<path fill-rule="evenodd" clip-rule="evenodd" fill="#FFFFFF" d="M74.176,70.566c-2.278,0-4.556-0.018-6.834,0.012
				c-0.598,0.011-0.853-0.19-1.053-0.762c-3.237-9.271-6.492-18.537-9.778-27.792c-0.284-0.797-0.107-0.921,0.659-0.916
				c4.177,0.027,8.353,0.016,12.529,0.012c2.26-0.001,3.892,1.018,4.715,3.109c3.011,7.646,5.985,15.307,8.946,22.974
				c0.681,1.766-0.443,3.337-2.35,3.357C78.731,70.584,76.454,70.565,74.176,70.566z"/>
			<g>
				<path fill-rule="evenodd" clip-rule="evenodd" fill="#FFFFFF" d="M24.47,37.939h17.025c-0.9-2.685-1.801-5.37-2.7-8.055
					c-0.198-0.59-0.472-0.802-1.111-0.797c-4.149,0.032-8.299,0.014-12.448,0.018c-2.397,0.002-3.297,1.304-2.526,3.592
					C23.297,34.445,23.883,36.192,24.47,37.939z"/>
				<path fill-rule="evenodd" clip-rule="evenodd" fill="#FFFFFF" d="M56.045,80.464c-0.755-2.146-1.474-4.303-2.198-6.458
					c-3.683-10.961-7.364-21.924-11.04-32.887H25.783c1.639,4.878,3.274,9.758,4.915,14.635c2.482,7.379,4.963,14.76,7.46,22.134
					c0.774,2.285,2.111,3.211,4.529,3.218c2.017,0.004,4.033,0.001,6.05,0.001c2.279,0,4.559-0.011,6.837,0.008
					C56.109,81.12,56.231,80.994,56.045,80.464z"/>
			</g>
		</g>
		<g>
			<rect x="139.453" y="34.333" fill="#FFFFFF" width="10.536" height="55.079"/>
			<rect x="139.453" y="23.222" fill="#FFFFFF" width="10.536" height="8.445"/>
		</g>
	</g>
</g>
</svg>
