<?xml version="1.0" encoding="utf-8"?>
<!-- Generator: Adobe Illustrator 16.0.0, SVG Export Plug-In . SVG Version: 6.00 Build 0)  -->
<!DOCTYPE svg PUBLIC "-//W3C//DTD SVG 1.1//EN" "http://www.w3.org/Graphics/SVG/1.1/DTD/svg11.dtd">
<svg version="1.1" id="Layer_1" xmlns="http://www.w3.org/2000/svg" xmlns:xlink="http://www.w3.org/1999/xlink" x="0px" y="0px"
	 width="106px" height="106px" viewBox="0 0 106 106" enable-background="new 0 0 106 106" xml:space="preserve">
<circle fill-rule="evenodd" clip-rule="evenodd" fill="#0AC834" cx="53" cy="53" r="53"/>
<g>
	<path fill-rule="evenodd" clip-rule="evenodd" fill="#FFFFFF" d="M74.176,70.566c-2.278,0-4.557-0.018-6.834,0.012
		c-0.599,0.011-0.854-0.19-1.053-0.762c-3.238-9.271-6.492-18.537-9.779-27.792c-0.283-0.797-0.106-0.921,0.66-0.916
		c4.176,0.027,8.352,0.016,12.529,0.012c2.26-0.001,3.891,1.018,4.715,3.109c3.01,7.646,5.984,15.307,8.945,22.974
		c0.682,1.766-0.443,3.337-2.35,3.357C78.731,70.584,76.453,70.565,74.176,70.566z"/>
	<g>
		<path fill-rule="evenodd" clip-rule="evenodd" fill="#FFFFFF" d="M24.47,37.939h17.025c-0.9-2.685-1.801-5.37-2.7-8.055
			c-0.198-0.59-0.472-0.802-1.111-0.797c-4.149,0.032-8.299,0.014-12.448,0.018c-2.397,0.002-3.297,1.304-2.526,3.592
			C23.297,34.445,23.883,36.192,24.47,37.939z"/>
		<path fill-rule="evenodd" clip-rule="evenodd" fill="#FFFFFF" d="M56.045,80.464c-0.755-2.146-1.475-4.303-2.197-6.458
			c-3.684-10.961-7.364-21.924-11.04-32.887H25.783c1.639,4.878,3.274,9.758,4.915,14.635c2.482,7.379,4.963,14.76,7.46,22.134
			c0.774,2.285,2.111,3.211,4.529,3.218c2.017,0.004,4.033,0.001,6.05,0.001c2.279,0,4.558-0.011,6.837,0.008
			C56.109,81.12,56.231,80.994,56.045,80.464z"/>
	</g>
</g>
</svg>
